# xmcd
#
# Track frame offsets: 
#        150
#        17820
#        34070
#        51770
#
# Disc length: 905 seconds
#
# Revision: 1
# Processed by: cddbd v1.5.2PL0 Copyright (c) Steve Scherf et al.
# Submitted via: ExactAudioCopy v1.0b3
#
DISCID=2a038704
DTITLE=堀江美都子＆水木一郎・串田アキラ - ENGAGE!!!ゴーダンナー
DYEAR=2004
DGENRE=Anime
TTITLE0=堀江美都子＆水木一郎 - ENGAGE!!!ゴーダンナー
TTITLE1=串田アキラ - 我が名はゴーダンナー
TTITLE2=堀江美都子＆水木一郎 - ENGAGE!!!ゴーダンナー・オリジナルカラオケ
TTITLE3=串田アキラ - 我が名はゴーダンナー・オリジナルカラオケ
EXTD=YEAR: 2004
EXTT0=
EXTT1=
EXTT2=
EXTT3=
PLAYORDER=
